<mxfile host="app.diagrams.net" modified="2022-11-03T21:39:27.626Z" agent="5.0 (X11)" etag="F6fA2yw6wTMsZAtWKWy9" version="20.5.1" type="github">
  <diagram id="FB4yJIjxwiiJZ0WXAPx9" name="Page-1">
    <mxGraphModel dx="1219" dy="772" grid="1" gridSize="10" guides="1" tooltips="1" connect="1" arrows="1" fold="1" page="1" pageScale="1" pageWidth="850" pageHeight="1100" math="0" shadow="0">
      <root>
        <mxCell id="0" />
        <mxCell id="1" parent="0" />
        <mxCell id="DDTjF9xRqAf59hCxWo6v-1" value="" style="rounded=1;whiteSpace=wrap;html=1;" vertex="1" parent="1">
          <mxGeometry x="140" y="290" width="120" height="60" as="geometry" />
        </mxCell>
      </root>
    </mxGraphModel>
  </diagram>
</mxfile>
